<svg height="542" width="720" xmlns="http://www.w3.org/2000/svg">
<rect height="542" fill="#555" width="720"></rect>
<text fill="#7f7" font-family="Courier New" font-size="12" xml:space="preserve">
<tspan x="10" y="26">7 megabytes installed</tspan>
<tspan x="10" y="42"></tspan>
<tspan x="10" y="58">node_modules</tspan>
<tspan x="10" y="74">└─┬ sass-module-importer@1.4.0 </tspan>
<tspan x="10" y="90">  ├─┬ es6-map@0.1.3 </tspan>
<tspan x="10" y="106">  │ ├── d@0.1.1 </tspan>
<tspan x="10" y="122">  │ ├─┬ es5-ext@0.10.15 </tspan>
<tspan x="10" y="138">  │ │ └─┬ es6-symbol@3.1.1 </tspan>
<tspan x="10" y="154">  │ │   └── d@1.0.0 </tspan>
<tspan x="10" y="170">  │ ├─┬ es6-iterator@2.0.1 </tspan>
<tspan x="10" y="186">  │ │ ├── d@1.0.0 </tspan>
<tspan x="10" y="202">  │ │ └── es6-symbol@3.1.1 </tspan>
<tspan x="10" y="218">  │ ├─┬ es6-set@0.1.5 </tspan>
<tspan x="10" y="234">  │ │ ├── d@1.0.0 </tspan>
<tspan x="10" y="250">  │ │ └── es6-symbol@3.1.1 </tspan>
<tspan x="10" y="266">  │ ├── es6-symbol@3.0.2 </tspan>
<tspan x="10" y="282">  │ └─┬ event-emitter@0.3.5 </tspan>
<tspan x="10" y="298">  │   └── d@1.0.0 </tspan>
<tspan x="10" y="314">  ├─┬ glob@7.1.1 </tspan>
<tspan x="10" y="330">  │ ├── fs.realpath@1.0.0 </tspan>
<tspan x="10" y="346">  │ ├─┬ inflight@1.0.6 </tspan>
<tspan x="10" y="362">  │ │ └── wrappy@1.0.2 </tspan>
<tspan x="10" y="378">  │ ├── inherits@2.0.3 </tspan>
<tspan x="10" y="394">  │ ├─┬ minimatch@3.0.3 </tspan>
<tspan x="10" y="410">  │ │ └─┬ brace-expansion@1.1.7 </tspan>
<tspan x="10" y="426">  │ │   ├── balanced-match@0.4.2 </tspan>
<tspan x="10" y="442">  │ │   └── concat-map@0.0.1 </tspan>
<tspan x="10" y="458">  │ ├── once@1.4.0 </tspan>
<tspan x="10" y="474">  │ └── path-is-absolute@1.0.1 </tspan>
<tspan x="10" y="490">  ├── object-assign@4.0.1 </tspan>
<tspan x="10" y="506">  ├── resolve@1.1.7 </tspan>
<tspan x="10" y="522">  └── resolve-bower@0.0.1</tspan>
</text>
</svg>
